<svg width="50" height="40" viewBox="0 0 50 40" fill="none" xmlns="http://www.w3.org/2000/svg">
    <path d="M37.4949 12.9928L40.8267 11.0416M17.7638 7.70374L15.8287 4.35071M12.4882 12.9884L9.13816 11.0654M32.204 7.70153L34.1252 4.35778L34.3991 3.89878M15.3512 25.4012L15.0959 24.8529C14.4192 23.4034 14.0617 21.8088 14.0617 20.2063C14.0617 14.2017 18.9787 9.28462 24.9875 9.28462C31.0152 9.28462 35.9134 14.1809 35.9134 20.2063C35.9134 21.8026 35.538 23.3866 34.8594 24.8306L34.6097 25.3554M25.0014 5.75504L24.9728 1.90771M6.69238 20.2105H10.5495M39.4306 20.21L43.2936 20.1814" stroke="#F0AB00" stroke-width="2" stroke-linecap="round" stroke-linejoin="round"/>
    <path d="M49 25.9132C48.0767 24.9906 46.8624 24.4907 45.5623 24.4907C44.2705 24.4907 43.0328 25.0054 42.1229 25.915C41.1738 26.8637 39.9499 27.3651 38.704 27.3651C37.4589 27.3651 36.2487 26.8772 35.2999 25.9296L34.6097 25.3553C33.8 24.8049 32.8328 24.5197 31.8458 24.5197C30.5539 24.5197 29.3356 25.0325 28.4256 25.9421C26.5387 27.8283 23.4378 27.8299 21.5509 25.9437C20.6367 25.0187 19.416 24.5197 18.1292 24.5197C17.1212 24.5197 16.158 24.8319 15.3511 25.4012C15.1239 25.5615 14.909 25.7422 14.7091 25.9421C12.8222 27.8283 9.72127 27.8299 7.83436 25.9437C6.92017 25.0187 5.6994 24.5197 4.41263 24.5197C3.12432 24.5197 1.90914 25.0297 1 25.9346" stroke="white" stroke-width="2" stroke-linecap="round" stroke-linejoin="round"/>
    <path d="M41.8964 31.302C40.9473 32.2507 39.7234 32.7521 38.4776 32.7521C37.2325 32.7521 36.0223 32.2642 35.0734 31.3166L34.3832 30.7424C33.5736 30.192 32.6063 29.9067 31.6193 29.9067C30.3274 29.9067 29.1091 30.4195 28.1992 31.3291C26.3123 33.2153 23.2114 33.2169 21.3245 31.3307C20.4103 30.4057 19.1895 29.9067 17.9027 29.9067C16.8948 29.9067 15.9315 30.2189 15.1246 30.7882C14.8974 30.9485 14.6826 31.1292 14.4826 31.3291C12.5957 33.2153 9.49481 33.2169 7.60791 31.3307" stroke="white" stroke-width="2" stroke-linecap="round" stroke-linejoin="round"/>
    <path d="M15.125 36.1359C15.9319 35.5666 16.8951 35.2544 17.9031 35.2544C19.1899 35.2544 20.4106 35.7533 21.3248 36.6784C23.2117 38.5646 26.3126 38.563 28.1995 36.6768C29.1095 35.7672 30.3278 35.2544 31.6197 35.2544C32.6067 35.2544 33.5739 35.5396 34.3836 36.09" stroke="white" stroke-width="2" stroke-linecap="round" stroke-linejoin="round"/>
</svg>
