<svg width="50" height="44" viewBox="0 0 50 44" fill="none" xmlns="http://www.w3.org/2000/svg">
    <path d="M27.0552 12.2238C28.3711 14.2052 30.8842 15.9374 33.4299 15.9374C37.4901 15.9374 40.7825 12.6389 40.7825 8.59149C40.7825 4.54466 37.4804 1.24561 33.4299 1.24561C30.8745 1.24561 28.6333 2.56307 27.3173 4.55409L26.9348 5.13274" stroke="#F0AB00" stroke-width="2" stroke-linecap="round" stroke-linejoin="round"/>
    <path d="M49 42.7202C42.3458 40.2161 33.6627 39.0119 25.0055 39.0119C24.4214 39.0119 23.8371 39.0175 23.2532 39.0288M1 42.7546C4.13891 41.5733 7.73167 40.6737 11.5603 40.0528M11.5603 40.0528L15.5199 34.811M11.5603 40.0528C15.3005 39.4463 19.2659 39.1059 23.2532 39.0288M15.5199 34.811L7.54358 25.953M15.5199 34.811L22.2578 34.7983M22.2578 34.7983L17.4587 14.4993M22.2578 34.7983L36.3654 34.788L40.3755 40.3661M22.2578 34.7983L23.2532 39.0288M17.4587 14.4993L3.62056 17.7657C2.94117 14.8305 3.96059 11.2621 5.78146 8.92018C7.3626 6.89437 9.30654 5.47422 12.1199 4.21239C13.2212 3.71845 15.0366 3.19 15.0366 3.19M17.4587 14.4993L23.3114 13.068M11.5824 15.8444C11.0059 7.89247 15.0366 3.19 15.0366 3.19M15.0366 3.19C15.0366 3.19 16.8648 2.90547 18.0457 2.88725C21.3659 2.83601 24.0186 3.44686 26.334 4.78534L26.9348 5.13263L27.5118 5.54292C29.4306 6.9687 31.3468 8.90611 31.3468 11.1746L27.0551 12.2237L23.3114 13.068M15.0366 3.19C15.0366 3.19 21.8619 7.6857 23.3114 13.068" stroke="white" stroke-width="2" stroke-linecap="round" stroke-linejoin="round"/>
    <path d="M13.6929 28.0459L17.0518 32.0766" stroke="white" stroke-width="2" stroke-linecap="round"/>
</svg>
