<svg width="59" height="50" viewBox="0 0 59 50" fill="none" xmlns="http://www.w3.org/2000/svg">
    <path d="M41.8805 44.5098L36.6077 48.7365C36.3947 48.9069 36.1344 48.9968 35.8693 48.9968C35.751 48.9968 35.628 48.9779 35.5096 48.94C35.131 48.8217 34.8375 48.5188 34.7287 48.1401L29.6594 30.4238C29.6168 30.2818 29.5127 30.1635 29.3754 30.1114C29.2382 30.0594 29.082 30.0736 28.9542 30.1493L19.9375 35.7629C19.8097 35.8433 19.7292 35.9759 19.715 36.1226L19.076 43.5253C19.0429 43.8945 18.8394 44.2305 18.5222 44.4246L15.0292 46.6113C14.712 46.8101 14.3239 46.848 13.9737 46.7107C13.6281 46.5782 13.3631 46.2847 13.2637 45.925L10.1398 34.7926C10.1161 34.7074 10.0688 34.6269 10.0025 34.5701L1.39285 26.8692C1.1136 26.6231 0.971601 26.2586 1.00473 25.8847C1.03787 25.5108 1.24139 25.1795 1.55852 24.9807L5.0516 22.8034C5.36873 22.6046 5.75685 22.5715 6.1071 22.704L13.0365 25.3925C13.1737 25.4445 13.3299 25.4303 13.4577 25.3546L22.4744 19.741C22.5975 19.6606 22.6827 19.5281 22.6969 19.3813C22.7111 19.2346 22.6543 19.0879 22.5454 18.9885L8.87601 6.63486C8.60149 6.38401 8.45949 6.02428 8.49263 5.65036C8.52576 5.28117 8.72929 4.94985 9.04641 4.75106L14.7783 1.17751C15.138 0.955046 15.5924 0.940847 15.9663 1.13964L35.2162 11.5242C35.3629 11.6047 35.5475 11.6 35.6895 11.51L45.7049 5.27171C47.2101 4.33454 49.6287 3.69556 51.858 3.64349C54.3335 3.5867 56.1936 4.25881 56.9604 5.48943C58.4466 7.87496 55.8576 13.4033 52.1941 15.6847L42.1787 21.923C42.0367 22.013 41.9515 22.1739 41.9562 22.3443L42.0036 30.3812" stroke="white" stroke-width="2" stroke-miterlimit="10"/>
    <path d="M55.7301 40.2921L47.6884 48.5988C47.1678 49.1337 46.3253 49.1337 45.8046 48.5988L37.7629 40.2921C35.4295 37.8781 35.562 33.8786 38.1747 31.6493C40.4514 29.7087 43.8451 30.0589 45.9324 32.2125L46.7513 33.055L47.5701 32.2125C49.6622 30.0542 53.0464 29.7039 55.3278 31.6493C57.9358 33.8786 58.073 37.8734 55.7348 40.2921H55.7301Z" stroke="#F0AB00" stroke-width="2" stroke-miterlimit="10"/>
</svg>
